ffmpeg started on 2026-04-01 at 13:34:05
Report written to "D:\Convert\FFMetrics\reports\ssim_report-6.txt"
Log level: 32
Command line:
ffmpeg -hide_banner -nostdin -r 24000/1001 -i "F:\\Convert\\files\\[DC] Make Heroine ga Oosugiru - 07_Telegram_HEVC(306).mkv" -r 24000/1001 -i "F:\\Convert\\files\\[DC] Make Heroine ga Oosugiru - 07_Telegram.mp4" -lavfi "[0:v]settb=AVTB,setpts=PTS-STARTPTS,format=pix_fmts=yuv420p10le,fps=24000/1001,scale=1920:1080:flags=lanczos:param0=3:out_range=limited:out_color_matrix=bt709:out_chroma_loc=left,setsar=1/1,setdar=(1920/1080)*(1/1),colorspace=format=yuv420p10:range=tv:primaries=bt709:trc=bt709:space=bt709:fast=0[main];[1:v]settb=AVTB,setpts=PTS-STARTPTS,format=pix_fmts=yuv420p,fps=24000/1001,scale=1920:1080:flags=lanczos:param0=3:out_range=limited:out_color_matrix=bt709:out_chroma_loc=left,setsar=1/1,setdar=(1920/1080)*(1/1),colorspace=format=yuv420p:range=tv:primaries=bt709:trc=bt709:space=bt709:fast=0[ref];[main][ref]ssim=eof_action=endall:stats_file='D\\:/Convert/FFMetrics/logs/ssim_logfile-6.txt'" -f null -
Input #0, matroska,webm, from 'F:\Convert\files\[DC] Make Heroine ga Oosugiru - 07_Telegram_HEVC(306).mkv':
  Metadata:
    COMPATIBLE_BRANDS: isomiso2avc1mp41
    MAJOR_BRAND     : isom
    MINOR_VERSION   : 512
    ENCODER         : Lavf61.7.100
  Duration: 00:24:06.79, start: -0.021000, bitrate: 1183 kb/s
  Stream #0:0: Video: hevc (Main 10), yuv420p10le(tv, bt709, progressive), 1920x1080 [SAR 1:1 DAR 16:9], 23.98 fps, 23.98 tbr, 1k tbn (default)
      Metadata:
        HANDLER_NAME    : VideoHandler
        VENDOR_ID       : [0][0][0][0]
        ENCODER         : Lavc61.19.100 libx265
        BPS             : 986694
        DURATION        : 00:24:06.569708333
        NUMBER_OF_FRAMES: 34683
        NUMBER_OF_BYTES : 178415255
        _STATISTICS_WRITING_APP: mkvpropedit v94.0 ('Initiate') 64-bit
        _STATISTICS_WRITING_DATE_UTC: 2026-03-31 10:18:54
        _STATISTICS_TAGS: BPS DURATION NUMBER_OF_FRAMES NUMBER_OF_BYTES
  Stream #0:1: Audio: aac (LC), 48000 Hz, stereo, fltp (default)
      Metadata:
        HANDLER_NAME    : SoundHandler
        VENDOR_ID       : [0][0][0][0]
        ENCODER         : Lavc61.19.100 aac
        BPS             : 193194
        DURATION        : 00:24:06.784000000
        NUMBER_OF_FRAMES: 67819
        NUMBER_OF_BYTES : 34938755
        _STATISTICS_WRITING_APP: mkvpropedit v94.0 ('Initiate') 64-bit
        _STATISTICS_WRITING_DATE_UTC: 2026-03-31 10:18:54
        _STATISTICS_TAGS: BPS DURATION NUMBER_OF_FRAMES NUMBER_OF_BYTES
Input #1, mov,mp4,m4a,3gp,3g2,mj2, from 'F:\Convert\files\[DC] Make Heroine ga Oosugiru - 07_Telegram.mp4':
  Metadata:
    major_brand     : isom
    minor_version   : 512
    compatible_brands: isomiso2avc1mp41
    encoder         : Lavf60.16.100
  Duration: 00:24:06.74, start: 0.000000, bitrate: 3764 kb/s
  Stream #1:0[0x1](und): Video: h264 (High) (avc1 / 0x31637661), yuv420p(tv, bt709, progressive), 1920x1080 [SAR 1:1 DAR 16:9], 3616 kb/s, 23.98 fps, 23.98 tbr, 24k tbn (default)
      Metadata:
        handler_name    : VideoHandler
        vendor_id       : [0][0][0][0]
        encoder         : Lavc60.31.102 h264_qsv
  Stream #1:1[0x2](und): Audio: aac (HE-AACv2) (mp4a / 0x6134706D), 48000 Hz, stereo, fltp, 144 kb/s (default)
      Metadata:
        handler_name    : SoundHandler
        vendor_id       : [0][0][0][0]
Stream mapping:
  Stream #0:0 (hevc) -> settb:default
  Stream #1:0 (h264) -> settb:default
  ssim:default -> Stream #0:0 (wrapped_avframe)
  Stream #0:1 -> #0:1 (aac (native) -> pcm_s16le (native))
Output #0, null, to 'pipe:':
  Metadata:
    COMPATIBLE_BRANDS: isomiso2avc1mp41
    MAJOR_BRAND     : isom
    MINOR_VERSION   : 512
    encoder         : Lavf61.7.100
  Stream #0:0: Video: wrapped_avframe, yuv420p10le(tv, bt709, progressive), 1920x1080 [SAR 1:1 DAR 16:9], q=2-31, 200 kb/s, 23.98 fps, 23.98 tbn
      Metadata:
        encoder         : Lavc61.19.100 wrapped_avframe
  Stream #0:1: Audio: pcm_s16le, 48000 Hz, stereo, s16, 1536 kb/s (default)
      Metadata:
        HANDLER_NAME    : SoundHandler
        VENDOR_ID       : [0][0][0][0]
        _STATISTICS_TAGS: BPS DURATION NUMBER_OF_FRAMES NUMBER_OF_BYTES
        BPS             : 193194
        DURATION        : 00:24:06.784000000
        NUMBER_OF_FRAMES: 67819
        NUMBER_OF_BYTES : 34938755
        _STATISTICS_WRITING_APP: mkvpropedit v94.0 ('Initiate') 64-bit
        _STATISTICS_WRITING_DATE_UTC: 2026-03-31 10:18:54
        encoder         : Lavc61.19.100 pcm_s16le
frame=  117 fps=0.0 q=-0.0 size=N/A time=00:00:04.87 bitrate=N/A speed=9.68x    frame=  311 fps=302 q=-0.0 size=N/A time=00:00:12.97 bitrate=N/A speed=12.6x    frame=  492 fps=320 q=-0.0 size=N/A time=00:00:20.52 bitrate=N/A speed=13.3x    frame=  678 fps=329 q=-0.0 size=N/A time=00:00:28.27 bitrate=N/A speed=13.7x    frame=  872 fps=340 q=-0.0 size=N/A time=00:00:36.36 bitrate=N/A speed=14.2x    frame= 1009 fps=326 q=-0.0 size=N/A time=00:00:42.08 bitrate=N/A speed=13.6x    frame= 1175 fps=324 q=-0.0 size=N/A time=00:00:49.00 bitrate=N/A speed=13.5x    frame= 1336 fps=324 q=-0.0 size=N/A time=00:00:55.72 bitrate=N/A speed=13.5x    frame= 1504 fps=323 q=-0.0 size=N/A time=00:01:02.72 bitrate=N/A speed=13.5x    frame= 1643 fps=318 q=-0.0 size=N/A time=00:01:08.52 bitrate=N/A speed=13.3x    frame= 1805 fps=318 q=-0.0 size=N/A time=00:01:15.28 bitrate=N/A speed=13.3x    frame= 1956 fps=316 q=-0.0 size=N/A time=00:01:21.58 bitrate=N/A speed=13.2x    frame= 2089 fps=311 q=-0.0 size=N/A time=00:01:27.12 bitrate=N/A speed=  13x    frame= 2235 fps=309 q=-0.0 size=N/A time=00:01:33.21 bitrate=N/A speed=12.9x    frame= 2382 fps=307 q=-0.0 size=N/A time=00:01:39.34 bitrate=N/A speed=12.8x    frame= 2516 fps=305 q=-0.0 size=N/A time=00:01:44.93 bitrate=N/A speed=12.7x    frame= 2663 fps=304 q=-0.0 size=N/A time=00:01:51.06 bitrate=N/A speed=12.7x    frame= 2843 fps=306 q=-0.0 size=N/A time=00:01:58.57 bitrate=N/A speed=12.8x    frame= 3006 fps=307 q=-0.0 size=N/A time=00:02:05.37 bitrate=N/A speed=12.8x    frame= 3201 fps=310 q=-0.0 size=N/A time=00:02:13.50 bitrate=N/A speed=12.9x    frame= 3387 fps=313 q=-0.0 size=N/A time=00:02:21.26 bitrate=N/A speed=  13x    frame= 3589 fps=316 q=-0.0 size=N/A time=00:02:29.69 bitrate=N/A speed=13.2x    frame= 3780 fps=318 q=-0.0 size=N/A time=00:02:37.65 bitrate=N/A speed=13.3x    frame= 3963 fps=320 q=-0.0 size=N/A time=00:02:45.29 bitrate=N/A speed=13.3x    frame= 4157 fps=322 q=-0.0 size=N/A time=00:02:53.38 bitrate=N/A speed=13.4x    frame= 4349 fps=324 q=-0.0 size=N/A time=00:03:01.38 bitrate=N/A speed=13.5x    frame= 4529 fps=325 q=-0.0 size=N/A time=00:03:08.89 bitrate=N/A speed=13.6x    frame= 4715 fps=326 q=-0.0 size=N/A time=00:03:16.65 bitrate=N/A speed=13.6x    frame= 4908 fps=328 q=-0.0 size=N/A time=00:03:24.70 bitrate=N/A speed=13.7x    frame= 5099 fps=330 q=-0.0 size=N/A time=00:03:32.67 bitrate=N/A speed=13.7x    frame= 5289 fps=331 q=-0.0 size=N/A time=00:03:40.59 bitrate=N/A speed=13.8x    frame= 5478 fps=332 q=-0.0 size=N/A time=00:03:48.47 bitrate=N/A speed=13.8x    frame= 5672 fps=333 q=-0.0 size=N/A time=00:03:56.56 bitrate=N/A speed=13.9x    frame= 5859 fps=334 q=-0.0 size=N/A time=00:04:04.36 bitrate=N/A speed=13.9x    frame= 6047 fps=335 q=-0.0 size=N/A time=00:04:12.21 bitrate=N/A speed=  14x    frame= 6235 fps=336 q=-0.0 size=N/A time=00:04:20.05 bitrate=N/A speed=  14x    frame= 6420 fps=336 q=-0.0 size=N/A time=00:04:27.76 bitrate=N/A speed=  14x    frame= 6614 fps=338 q=-0.0 size=N/A time=00:04:35.85 bitrate=N/A speed=14.1x    frame= 6807 fps=338 q=-0.0 size=N/A time=00:04:43.90 bitrate=N/A speed=14.1x    frame= 7000 fps=339 q=-0.0 size=N/A time=00:04:51.95 bitrate=N/A speed=14.2x    frame= 7177 fps=339 q=-0.0 size=N/A time=00:04:59.34 bitrate=N/A speed=14.2x    frame= 7368 fps=340 q=-0.0 size=N/A time=00:05:07.30 bitrate=N/A speed=14.2x    frame= 7546 fps=340 q=-0.0 size=N/A time=00:05:14.73 bitrate=N/A speed=14.2x    frame= 7714 fps=340 q=-0.0 size=N/A time=00:05:21.73 bitrate=N/A speed=14.2x    frame= 7905 fps=341 q=-0.0 size=N/A time=00:05:29.70 bitrate=N/A speed=14.2x    frame= 8092 fps=341 q=-0.0 size=N/A time=00:05:37.50 bitrate=N/A speed=14.2x    frame= 8285 fps=342 q=-0.0 size=N/A time=00:05:45.55 bitrate=N/A speed=14.3x    frame= 8470 fps=342 q=-0.0 size=N/A time=00:05:53.26 bitrate=N/A speed=14.3x    frame= 8660 fps=343 q=-0.0 size=N/A time=00:06:01.19 bitrate=N/A speed=14.3x    frame= 8842 fps=343 q=-0.0 size=N/A time=00:06:08.78 bitrate=N/A speed=14.3x    frame= 9017 fps=343 q=-0.0 size=N/A time=00:06:16.08 bitrate=N/A speed=14.3x    frame= 9205 fps=343 q=-0.0 size=N/A time=00:06:23.92 bitrate=N/A speed=14.3x    frame= 9393 fps=344 q=-0.0 size=N/A time=00:06:31.76 bitrate=N/A speed=14.3x    frame= 9570 fps=344 q=-0.0 size=N/A time=00:06:39.14 bitrate=N/A speed=14.3x    frame= 9755 fps=344 q=-0.0 size=N/A time=00:06:46.86 bitrate=N/A speed=14.3x    frame= 9942 fps=344 q=-0.0 size=N/A time=00:06:54.66 bitrate=N/A speed=14.4x    frame=10125 fps=344 q=-0.0 size=N/A time=00:07:02.29 bitrate=N/A speed=14.4x    frame=10312 fps=345 q=-0.0 size=N/A time=00:07:10.09 bitrate=N/A speed=14.4x    frame=10490 fps=345 q=-0.0 size=N/A time=00:07:17.52 bitrate=N/A speed=14.4x    frame=10669 fps=345 q=-0.0 size=N/A time=00:07:24.98 bitrate=N/A speed=14.4x    frame=10854 fps=345 q=-0.0 size=N/A time=00:07:32.70 bitrate=N/A speed=14.4x    frame=11034 fps=345 q=-0.0 size=N/A time=00:07:40.20 bitrate=N/A speed=14.4x    frame=11217 fps=345 q=-0.0 size=N/A time=00:07:47.84 bitrate=N/A speed=14.4x    frame=11398 fps=345 q=-0.0 size=N/A time=00:07:55.39 bitrate=N/A speed=14.4x    frame=11573 fps=345 q=-0.0 size=N/A time=00:08:02.69 bitrate=N/A speed=14.4x    frame=11758 fps=345 q=-0.0 size=N/A time=00:08:10.40 bitrate=N/A speed=14.4x    frame=11942 fps=346 q=-0.0 size=N/A time=00:08:18.08 bitrate=N/A speed=14.4x    frame=12124 fps=346 q=-0.0 size=N/A time=00:08:25.67 bitrate=N/A speed=14.4x    frame=12314 fps=346 q=-0.0 size=N/A time=00:08:33.59 bitrate=N/A speed=14.4x    frame=12492 fps=346 q=-0.0 size=N/A time=00:08:41.02 bitrate=N/A speed=14.4x    frame=12670 fps=346 q=-0.0 size=N/A time=00:08:48.44 bitrate=N/A speed=14.4x    frame=12861 fps=346 q=-0.0 size=N/A time=00:08:56.41 bitrate=N/A speed=14.4x    frame=13043 fps=346 q=-0.0 size=N/A time=00:09:04.00 bitrate=N/A speed=14.4x    frame=13224 fps=347 q=-0.0 size=N/A time=00:09:11.55 bitrate=N/A speed=14.5x    frame=13412 fps=347 q=-0.0 size=N/A time=00:09:19.39 bitrate=N/A speed=14.5x    frame=13593 fps=347 q=-0.0 size=N/A time=00:09:26.94 bitrate=N/A speed=14.5x    frame=13773 fps=347 q=-0.0 size=N/A time=00:09:34.44 bitrate=N/A speed=14.5x    frame=13960 fps=347 q=-0.0 size=N/A time=00:09:42.24 bitrate=N/A speed=14.5x    frame=14142 fps=347 q=-0.0 size=N/A time=00:09:49.83 bitrate=N/A speed=14.5x    frame=14330 fps=347 q=-0.0 size=N/A time=00:09:57.68 bitrate=N/A speed=14.5x    frame=14519 fps=348 q=-0.0 size=N/A time=00:10:05.56 bitrate=N/A speed=14.5x    frame=14705 fps=348 q=-0.0 size=N/A time=00:10:13.32 bitrate=N/A speed=14.5x    frame=14879 fps=348 q=-0.0 size=N/A time=00:10:20.57 bitrate=N/A speed=14.5x    frame=15069 fps=348 q=-0.0 size=N/A time=00:10:28.50 bitrate=N/A speed=14.5x    frame=15236 fps=348 q=-0.0 size=N/A time=00:10:35.46 bitrate=N/A speed=14.5x    frame=15431 fps=348 q=-0.0 size=N/A time=00:10:43.60 bitrate=N/A speed=14.5x    frame=15616 fps=348 q=-0.0 size=N/A time=00:10:51.31 bitrate=N/A speed=14.5x    frame=15802 fps=348 q=-0.0 size=N/A time=00:10:59.07 bitrate=N/A speed=14.5x    frame=15991 fps=348 q=-0.0 size=N/A time=00:11:06.95 bitrate=N/A speed=14.5x    frame=16171 fps=348 q=-0.0 size=N/A time=00:11:14.46 bitrate=N/A speed=14.5x    frame=16355 fps=348 q=-0.0 size=N/A time=00:11:22.13 bitrate=N/A speed=14.5x    frame=16543 fps=349 q=-0.0 size=N/A time=00:11:29.98 bitrate=N/A speed=14.5x    frame=16742 fps=349 q=-0.0 size=N/A time=00:11:38.28 bitrate=N/A speed=14.6x    frame=16935 fps=349 q=-0.0 size=N/A time=00:11:46.33 bitrate=N/A speed=14.6x    frame=17125 fps=350 q=-0.0 size=N/A time=00:11:54.25 bitrate=N/A speed=14.6x    frame=17321 fps=350 q=-0.0 size=N/A time=00:12:02.43 bitrate=N/A speed=14.6x    frame=17503 fps=350 q=-0.0 size=N/A time=00:12:10.02 bitrate=N/A speed=14.6x    frame=17682 fps=350 q=-0.0 size=N/A time=00:12:17.48 bitrate=N/A speed=14.6x    frame=17874 fps=350 q=-0.0 size=N/A time=00:12:25.49 bitrate=N/A speed=14.6x    frame=18052 fps=350 q=-0.0 size=N/A time=00:12:32.91 bitrate=N/A speed=14.6x    frame=18247 fps=350 q=-0.0 size=N/A time=00:12:41.05 bitrate=N/A speed=14.6x    frame=18427 fps=350 q=-0.0 size=N/A time=00:12:48.55 bitrate=N/A speed=14.6x    frame=18614 fps=350 q=-0.0 size=N/A time=00:12:56.35 bitrate=N/A speed=14.6x    frame=18807 fps=351 q=-0.0 size=N/A time=00:13:04.40 bitrate=N/A speed=14.6x    frame=18989 fps=351 q=-0.0 size=N/A time=00:13:11.99 bitrate=N/A speed=14.6x    frame=19179 fps=351 q=-0.0 size=N/A time=00:13:19.92 bitrate=N/A speed=14.6x    frame=19363 fps=351 q=-0.0 size=N/A time=00:13:27.59 bitrate=N/A speed=14.6x    frame=19556 fps=351 q=-0.0 size=N/A time=00:13:35.64 bitrate=N/A speed=14.6x    frame=19749 fps=351 q=-0.0 size=N/A time=00:13:43.69 bitrate=N/A speed=14.7x    frame=19935 fps=351 q=-0.0 size=N/A time=00:13:51.45 bitrate=N/A speed=14.7x    frame=20130 fps=352 q=-0.0 size=N/A time=00:13:59.58 bitrate=N/A speed=14.7x    frame=20318 fps=352 q=-0.0 size=N/A time=00:14:07.42 bitrate=N/A speed=14.7x    frame=20490 fps=352 q=-0.0 size=N/A time=00:14:14.60 bitrate=N/A speed=14.7x    frame=20655 fps=351 q=-0.0 size=N/A time=00:14:21.48 bitrate=N/A speed=14.7x    frame=20853 fps=352 q=-0.0 size=N/A time=00:14:29.74 bitrate=N/A speed=14.7x    frame=21047 fps=352 q=-0.0 size=N/A time=00:14:37.83 bitrate=N/A speed=14.7x    frame=21223 fps=352 q=-0.0 size=N/A time=00:14:45.17 bitrate=N/A speed=14.7x    frame=21410 fps=352 q=-0.0 size=N/A time=00:14:52.97 bitrate=N/A speed=14.7x    frame=21599 fps=352 q=-0.0 size=N/A time=00:15:00.85 bitrate=N/A speed=14.7x    frame=21784 fps=352 q=-0.0 size=N/A time=00:15:08.57 bitrate=N/A speed=14.7x    frame=21966 fps=352 q=-0.0 size=N/A time=00:15:16.16 bitrate=N/A speed=14.7x    frame=22150 fps=352 q=-0.0 size=N/A time=00:15:23.83 bitrate=N/A speed=14.7x    frame=22330 fps=352 q=-0.0 size=N/A time=00:15:31.34 bitrate=N/A speed=14.7x    frame=22527 fps=352 q=-0.0 size=N/A time=00:15:39.56 bitrate=N/A speed=14.7x    frame=22708 fps=352 q=-0.0 size=N/A time=00:15:47.11 bitrate=N/A speed=14.7x    frame=22880 fps=352 q=-0.0 size=N/A time=00:15:54.28 bitrate=N/A speed=14.7x    frame=23058 fps=352 q=-0.0 size=N/A time=00:16:01.71 bitrate=N/A speed=14.7x    frame=23243 fps=352 q=-0.0 size=N/A time=00:16:09.42 bitrate=N/A speed=14.7x    frame=23432 fps=352 q=-0.0 size=N/A time=00:16:17.30 bitrate=N/A speed=14.7x    frame=23609 fps=352 q=-0.0 size=N/A time=00:16:24.69 bitrate=N/A speed=14.7x    frame=23786 fps=352 q=-0.0 size=N/A time=00:16:32.07 bitrate=N/A speed=14.7x    frame=23977 fps=352 q=-0.0 size=N/A time=00:16:40.04 bitrate=N/A speed=14.7x    frame=24152 fps=352 q=-0.0 size=N/A time=00:16:47.33 bitrate=N/A speed=14.7x    frame=24339 fps=352 q=-0.0 size=N/A time=00:16:55.13 bitrate=N/A speed=14.7x    frame=24525 fps=352 q=-0.0 size=N/A time=00:17:02.89 bitrate=N/A speed=14.7x    frame=24708 fps=352 q=-0.0 size=N/A time=00:17:10.52 bitrate=N/A speed=14.7x    frame=24881 fps=352 q=-0.0 size=N/A time=00:17:17.74 bitrate=N/A speed=14.7x    frame=25068 fps=352 q=-0.0 size=N/A time=00:17:25.54 bitrate=N/A speed=14.7x    frame=25252 fps=352 q=-0.0 size=N/A time=00:17:33.21 bitrate=N/A speed=14.7x    frame=25433 fps=352 q=-0.0 size=N/A time=00:17:40.76 bitrate=N/A speed=14.7x    frame=25618 fps=352 q=-0.0 size=N/A time=00:17:48.48 bitrate=N/A speed=14.7x    frame=25795 fps=352 q=-0.0 size=N/A time=00:17:55.86 bitrate=N/A speed=14.7x    frame=25979 fps=352 q=-0.0 size=N/A time=00:18:03.54 bitrate=N/A speed=14.7x    frame=26167 fps=352 q=-0.0 size=N/A time=00:18:11.38 bitrate=N/A speed=14.7x    frame=26341 fps=352 q=-0.0 size=N/A time=00:18:18.63 bitrate=N/A speed=14.7x    frame=26527 fps=352 q=-0.0 size=N/A time=00:18:26.39 bitrate=N/A speed=14.7x    frame=26717 fps=352 q=-0.0 size=N/A time=00:18:34.32 bitrate=N/A speed=14.7x    frame=26901 fps=352 q=-0.0 size=N/A time=00:18:41.99 bitrate=N/A speed=14.7x    frame=27071 fps=352 q=-0.0 size=N/A time=00:18:49.08 bitrate=N/A speed=14.7x    frame=27245 fps=352 q=-0.0 size=N/A time=00:18:56.34 bitrate=N/A speed=14.7x    frame=27433 fps=352 q=-0.0 size=N/A time=00:19:04.18 bitrate=N/A speed=14.7x    frame=27605 fps=352 q=-0.0 size=N/A time=00:19:11.35 bitrate=N/A speed=14.7x    frame=27788 fps=352 q=-0.0 size=N/A time=00:19:18.99 bitrate=N/A speed=14.7x    frame=27970 fps=352 q=-0.0 size=N/A time=00:19:26.58 bitrate=N/A speed=14.7x    frame=28150 fps=352 q=-0.0 size=N/A time=00:19:34.08 bitrate=N/A speed=14.7x    frame=28322 fps=352 q=-0.0 size=N/A time=00:19:41.26 bitrate=N/A speed=14.7x    frame=28509 fps=352 q=-0.0 size=N/A time=00:19:49.06 bitrate=N/A speed=14.7x    frame=28676 fps=352 q=-0.0 size=N/A time=00:19:56.02 bitrate=N/A speed=14.7x    frame=28846 fps=352 q=-0.0 size=N/A time=00:20:03.11 bitrate=N/A speed=14.7x    frame=29007 fps=351 q=-0.0 size=N/A time=00:20:09.83 bitrate=N/A speed=14.7x    frame=29174 fps=351 q=-0.0 size=N/A time=00:20:16.79 bitrate=N/A speed=14.7x    frame=29348 fps=351 q=-0.0 size=N/A time=00:20:24.05 bitrate=N/A speed=14.7x    frame=29499 fps=351 q=-0.0 size=N/A time=00:20:30.35 bitrate=N/A speed=14.6x    frame=29678 fps=351 q=-0.0 size=N/A time=00:20:37.81 bitrate=N/A speed=14.6x    frame=29846 fps=351 q=-0.0 size=N/A time=00:20:44.82 bitrate=N/A speed=14.6x    frame=30007 fps=350 q=-0.0 size=N/A time=00:20:51.54 bitrate=N/A speed=14.6x    frame=30175 fps=350 q=-0.0 size=N/A time=00:20:58.54 bitrate=N/A speed=14.6x    frame=30347 fps=350 q=-0.0 size=N/A time=00:21:05.72 bitrate=N/A speed=14.6x    frame=30530 fps=350 q=-0.0 size=N/A time=00:21:13.35 bitrate=N/A speed=14.6x    frame=30712 fps=350 q=-0.0 size=N/A time=00:21:20.94 bitrate=N/A speed=14.6x    frame=30898 fps=350 q=-0.0 size=N/A time=00:21:28.70 bitrate=N/A speed=14.6x    frame=31074 fps=350 q=-0.0 size=N/A time=00:21:36.04 bitrate=N/A speed=14.6x    frame=31257 fps=350 q=-0.0 size=N/A time=00:21:43.67 bitrate=N/A speed=14.6x    frame=31441 fps=350 q=-0.0 size=N/A time=00:21:51.35 bitrate=N/A speed=14.6x    frame=31618 fps=350 q=-0.0 size=N/A time=00:21:58.73 bitrate=N/A speed=14.6x    frame=31801 fps=350 q=-0.0 size=N/A time=00:22:06.36 bitrate=N/A speed=14.6x    frame=31961 fps=350 q=-0.0 size=N/A time=00:22:13.04 bitrate=N/A speed=14.6x    frame=32143 fps=350 q=-0.0 size=N/A time=00:22:20.63 bitrate=N/A speed=14.6x    frame=32335 fps=350 q=-0.0 size=N/A time=00:22:28.63 bitrate=N/A speed=14.6x    frame=32516 fps=350 q=-0.0 size=N/A time=00:22:36.18 bitrate=N/A speed=14.6x    frame=32670 fps=350 q=-0.0 size=N/A time=00:22:42.61 bitrate=N/A speed=14.6x    frame=32828 fps=350 q=-0.0 size=N/A time=00:22:49.20 bitrate=N/A speed=14.6x    frame=32992 fps=350 q=-0.0 size=N/A time=00:22:56.04 bitrate=N/A speed=14.6x    frame=33168 fps=349 q=-0.0 size=N/A time=00:23:03.38 bitrate=N/A speed=14.6x    frame=33336 fps=349 q=-0.0 size=N/A time=00:23:10.38 bitrate=N/A speed=14.6x    frame=33492 fps=349 q=-0.0 size=N/A time=00:23:16.89 bitrate=N/A speed=14.6x    frame=33641 fps=349 q=-0.0 size=N/A time=00:23:23.11 bitrate=N/A speed=14.5x    frame=33777 fps=348 q=-0.0 size=N/A time=00:23:28.78 bitrate=N/A speed=14.5x    frame=33906 fps=348 q=-0.0 size=N/A time=00:23:34.16 bitrate=N/A speed=14.5x    frame=34066 fps=348 q=-0.0 size=N/A time=00:23:40.83 bitrate=N/A speed=14.5x    frame=34223 fps=347 q=-0.0 size=N/A time=00:23:47.38 bitrate=N/A speed=14.5x    frame=34365 fps=347 q=-0.0 size=N/A time=00:23:53.30 bitrate=N/A speed=14.5x    frame=34504 fps=347 q=-0.0 size=N/A time=00:23:59.10 bitrate=N/A speed=14.5x    [Parsed_ssim_16 @ 0000011cafba0180] SSIM Y:0.994793 (22.834364) U:0.994782 (22.824594) V:0.994476 (22.577375) All:0.994738 (22.788849)
[out#0/null @ 0000011ca87ddec0] video:14903KiB audio:271276KiB subtitle:0KiB other streams:0KiB global headers:0KiB muxing overhead: unknown
frame=34683 fps=347 q=-0.0 Lsize=N/A time=00:24:06.57 bitrate=N/A speed=14.5x    
